<svg xmlns="http://www.w3.org/2000/svg" xmlns:xlink="http://www.w3.org/1999/xlink" viewBox="0 0 1280 720"><defs><style>.cls-1{fill:#fff;}.cls-1,.cls-2,.cls-3,.cls-4,.cls-5,.cls-6{stroke:#000;stroke-miterlimit:10;}.cls-2{fill:#a92d0e;}.cls-3{fill:#855829;}.cls-4{fill:#100789;}.cls-5{fill:#aa8b52;}.cls-5,.cls-6{stroke-width:2px;}.cls-6{fill:#c22e70;}.cls-7{fill:#3a080f;}</style><symbol id="dulce4" data-name="dulce4" viewBox="0 0 14.35 12.83"><path class="cls-4" d="M11.5.52S5.88,1,5.31,1.58s-2.43,2-2.43,2-1.32.25-1.5.69A5.41,5.41,0,0,0,.5,6.45V8.33a8.54,8.54,0,0,0,.75,2.5c.44.94.88,1.75,1.88,1.44S4.69,8.7,4.94,8.39,6,5.77,7.44,5.77s1.81-.32,3.06-.13,3.31-1.31,3.31-1.31L13.5,2.08Z"/></symbol><symbol id="dulce3" data-name="dulce3" viewBox="0 0 11.89 16.5"><path class="cls-3" d="M7,8.77A36.65,36.65,0,0,1,7,5c.13-1.25.63-3.75,0-3.87S2.42.52,2.42.52A5.17,5.17,0,0,0,1.29,1.9,10,10,0,0,0,.54,4.65S4,6.4,4,6.77a14.89,14.89,0,0,0,1.59,4.38c.75,1.12.38,2.25,1.13,3.37s.37,2,2,1.13,3.12-2,2.62-2.88A38.5,38.5,0,0,0,7,8.77Z"/></symbol><symbol id="dulce2" data-name="dulce2" viewBox="0 0 12.15 15.88"><path class="cls-2" d="M10.25.66S5.26-1.25,1.93,8s-.05,7.54,1.81,6.85,5.68-6,5.88-6.22,1.46-5.23,1.46-5.43S12.8.86,10.25.66Z"/></symbol><symbol id="dulce1" data-name="dulce1" viewBox="0 0 14.41 9.81"><path class="cls-1" d="M10,5.21s4.61-.83,3.78-2.37S12.27-.24,10,.88s-1.53,1-2.23,2S4.86,4.66,4,5.21,1.65,6.75,1.65,6.75,0,9.13.67,9.27s2.24-.14,2.66,0S10,5.21,10,5.21Z"/></symbol></defs><g id="dona"><path class="cls-5" d="M657.24,438.88s22.9-52.56-6.33-91.54S589,303,528.13,312.26s-91.6,60.41-85.75,107.19,6,60.13,58.18,85.47c21.41,10.4,61.93,12.56,78.94,7.72A96.67,96.67,0,0,0,631.81,475Z"/><path class="cls-6" d="M532.47,319.75c-1.5,1.5-3.5,6.5-9.5,6.5s-12.5-3.25-12.5-3.25L499,326.25s-5.5-3-6.5,0,.5,8.5-2.5,9.5-4.5-2-8,0l-3.5,2H475s-4.5,1.5-5.5,4-11,14-11,14,1.5-1.5,0,2.5,1.5,11,0,12.5-6,12-7,15.5a36.86,36.86,0,0,1-3,7s-3.5,4.5-4,7.5.5,6,0,9.5,5,6.5,5,6.5a13.27,13.27,0,0,1,1,5.5c0,3.5-.5,3,0,8.5s.5,5.5,1.5,9,0,3,1,7.5-1-.5,1,4.5.5,3.5,4,9,2.5,3.5,6,7.5,3.5,2.5,6,5,8.5-1.5,11,4.5,1.5,6,3,9.5,5.5,7,6.5,9,2,.5,4,3,3,2,8,2.5,12.5,1.5,14,0,10.5-2.5,10.5-2.5,32.5,7.5,35.5,9,20.5-4.5,20.5-4.5,1-5.5,3-5.5,15.5-4,15.5-4,2.5-3,4.5-3.5,4.5-5,4.5-5,9.5-9,11.5-9.5,10.5-2.5,10.5-2.5-1-1,0-4,0-12.5,0-12.5l4.5-13a4.11,4.11,0,0,0,0-4.5c-1.5-2.5-5-13.5-5-13.5s-3.87-8.5-2.43-10,4.93-24.5,4.93-26,1-20,0-22-1.5-7.5-1.5-7.5a7.85,7.85,0,0,0-3.43-8c-4.57-3-6.57-4.5-6.57-6s-2-8.5-2-8.5l-4-5.5s-7.5-4-9.5-5.5-6.5-20.5-7-7.5-38-4.52-38-4.52Z"/><use width="14.35" height="12.83" transform="translate(507.75 319.47)" xlink:href="#dulce4"/><use width="14.35" height="12.83" transform="translate(506.45 341.54)" xlink:href="#dulce4"/><use width="14.35" height="12.83" transform="translate(492.4 351.32)" xlink:href="#dulce4"/><use width="14.35" height="12.83" transform="translate(486.42 371.88)" xlink:href="#dulce4"/><use width="14.35" height="12.83" transform="translate(463.91 385.05)" xlink:href="#dulce4"/><use width="14.35" height="12.83" transform="translate(465.63 404.34)" xlink:href="#dulce4"/><use width="14.35" height="12.83" transform="translate(462.76 421.59)" xlink:href="#dulce4"/><use width="14.35" height="12.83" transform="translate(479.04 441.54)" xlink:href="#dulce4"/><use width="14.35" height="12.83" transform="translate(499.3 444.02)" xlink:href="#dulce4"/><use width="14.35" height="12.83" transform="translate(518.13 450.74)" xlink:href="#dulce4"/><use width="14.35" height="12.83" transform="translate(536.58 459.97)" xlink:href="#dulce4"/><use width="14.35" height="12.83" transform="translate(559.26 463.31)" xlink:href="#dulce4"/><use width="14.35" height="12.83" transform="translate(576.53 469.08)" xlink:href="#dulce4"/><use width="14.35" height="12.83" transform="translate(595 457.31)" xlink:href="#dulce4"/><use width="14.35" height="12.83" transform="translate(617.94 443.83)" xlink:href="#dulce4"/><use width="14.35" height="12.83" transform="translate(622.7 411.6)" xlink:href="#dulce4"/><use width="14.35" height="12.83" transform="translate(614.53 390.83)" xlink:href="#dulce4"/><use width="14.35" height="12.83" transform="translate(611.08 369.59)" xlink:href="#dulce4"/><use width="14.35" height="12.83" transform="translate(617.88 358.15)" xlink:href="#dulce4"/><use width="11.89" height="16.5" transform="translate(501.04 367)" xlink:href="#dulce3"/><use width="11.89" height="16.5" transform="translate(473.88 364.8)" xlink:href="#dulce3"/><use width="11.89" height="16.5" transform="translate(481.37 389.93)" xlink:href="#dulce3"/><use width="11.89" height="16.5" transform="translate(448.6 394.81)" xlink:href="#dulce3"/><use width="11.89" height="16.5" transform="translate(444.42 415.1)" xlink:href="#dulce3"/><use width="11.89" height="16.5" transform="translate(453.33 446.04)" xlink:href="#dulce3"/><use width="11.89" height="16.5" transform="translate(481.25 477.33)" xlink:href="#dulce3"/><use width="11.89" height="16.5" transform="translate(508.68 484.1)" xlink:href="#dulce3"/><use width="11.89" height="16.5" transform="translate(550.87 493.48)" xlink:href="#dulce3"/><use width="11.89" height="16.5" transform="translate(583.1 490.02)" xlink:href="#dulce3"/><use width="11.89" height="16.5" transform="translate(607.03 467.43)" xlink:href="#dulce3"/><use width="11.89" height="16.5" transform="translate(609.03 434.65)" xlink:href="#dulce3"/><use width="11.89" height="16.5" transform="translate(607.83 411.38)" xlink:href="#dulce3"/><use width="12.15" height="15.88" transform="translate(597.87 349.27)" xlink:href="#dulce2"/><use width="12.15" height="15.88" transform="translate(589.99 330.3)" xlink:href="#dulce2"/><use width="12.15" height="15.88" transform="translate(562.43 322.76)" xlink:href="#dulce2"/><use width="12.15" height="15.88" transform="translate(541.41 318.95)" xlink:href="#dulce2"/><use width="12.15" height="15.88" transform="translate(521.84 323.38)" xlink:href="#dulce2"/><use width="12.15" height="15.88" transform="translate(488.44 321.93)" xlink:href="#dulce2"/><use width="12.15" height="15.88" transform="translate(477.48 337.85)" xlink:href="#dulce2"/><use width="12.15" height="15.88" transform="translate(465.62 347.27)" xlink:href="#dulce2"/><use width="12.15" height="15.88" transform="translate(449.99 365.69)" xlink:href="#dulce2"/><use width="12.15" height="15.88" transform="translate(477.87 420.75)" xlink:href="#dulce2"/><use width="12.15" height="15.88" transform="translate(494.86 464.85)" xlink:href="#dulce2"/><use width="12.15" height="15.88" transform="translate(544.97 481.14)" xlink:href="#dulce2"/><use width="12.15" height="15.88" transform="translate(598.24 479.14)" xlink:href="#dulce2"/><use width="14.41" height="9.81" transform="translate(520.51 374.57) rotate(-70.28)" xlink:href="#dulce1"/><use width="14.41" height="9.81" transform="translate(462.66 384.81) rotate(-68.17)" xlink:href="#dulce1"/><use width="14.41" height="9.81" transform="matrix(1, -0.05, 0.05, 1, 446.7, 433.43)" xlink:href="#dulce1"/><use width="14.41" height="9.81" transform="translate(474.7 467.01) rotate(50.61)" xlink:href="#dulce1"/><use width="14.41" height="9.81" transform="translate(546.41 504.49) rotate(53.15)" xlink:href="#dulce1"/><use width="14.41" height="9.81" transform="translate(639.6 441.94) rotate(9.28)" xlink:href="#dulce1"/><use width="14.41" height="9.81" transform="matrix(0.95, -0.32, 0.32, 0.95, 630, 388.64)" xlink:href="#dulce1"/><use width="14.41" height="9.81" transform="matrix(0.76, -0.65, 0.65, 0.76, 592, 376.25)" xlink:href="#dulce1"/><use width="14.41" height="9.81" transform="translate(555.87 374.18) rotate(-55.1)" xlink:href="#dulce1"/><use width="14.41" height="9.81" transform="translate(553.84 387.81) rotate(-54.72)" xlink:href="#dulce1"/><path d="M550.54,374.62s-35.08,15.29-33.13,37.61,16.08,32.55,33.13,32.06,38.49-11,35.57-32.06S575.88,379.49,550.54,374.62Z"/><path class="cls-7" d="M457.6,394.57s-7.26,12.21,0,17.66S457.6,394.57,457.6,394.57Z"/><path class="cls-7" d="M488.63,441.45s-17.83-15.85-15.85-5.94S488.63,441.45,488.63,441.45Z"/><path class="cls-7" d="M540.13,473.14s-3.3,10.56,5.28,10.56S540.13,473.14,540.13,473.14Z"/><path class="cls-7" d="M488.63,368.16s-5.28,13.21,0,17.83S494.57,369.48,488.63,368.16Z"/><path class="cls-7" d="M581.72,352.32s-5.94,15.18,0,18.48S581.72,352.32,581.72,352.32Z"/><path class="cls-7" d="M629.26,380.71s-28.39,9.24-19.81,10.56S629.26,380.71,629.26,380.71Z"/><path class="cls-7" d="M499.19,417s-7.26,7.26,0,9.9S507.78,421.64,499.19,417Z"/><path class="cls-7" d="M539.5,499.55s-33.08-11.89-22.17-13.21S539.5,499.55,539.5,499.55Z"/></g></svg>