<svg xmlns="http://www.w3.org/2000/svg" xmlns:xlink="http://www.w3.org/1999/xlink" viewBox="0 0 1280 720"><defs><style>.cls-1,.cls-17{fill:#fff;}.cls-1,.cls-10,.cls-11,.cls-12,.cls-13,.cls-14,.cls-15,.cls-2,.cls-3,.cls-4,.cls-6,.cls-7,.cls-8,.cls-9{stroke:#000;stroke-miterlimit:10;}.cls-2{fill:#100789;}.cls-3{fill:#ffcc13;}.cls-14,.cls-4{fill:#c22e70;}.cls-5{fill:#3a080f;}.cls-6,.cls-7{fill:none;}.cls-7{stroke-dasharray:8.04 8.04;}.cls-8{fill:#aa8b52;}.cls-10{fill:#a92d0e;}.cls-11{fill:#90ade5;}.cls-12{fill:#5b79aa;}.cls-13,.cls-15{fill:#855829;}.cls-13,.cls-14{stroke-width:1.23px;}.cls-16{opacity:0.5;}</style><symbol id="dulce4" data-name="dulce4" viewBox="0 0 14.35 12.83"><path class="cls-2" d="M11.5.52S5.88,1,5.31,1.58s-2.43,2-2.43,2-1.32.25-1.5.69A5.41,5.41,0,0,0,.5,6.45V8.33a8.54,8.54,0,0,0,.75,2.5c.44.94.88,1.75,1.88,1.44S4.69,8.7,4.94,8.39,6,5.77,7.44,5.77s1.81-.32,3.06-.13,3.31-1.31,3.31-1.31L13.5,2.08Z"/></symbol><symbol id="dulce1" data-name="dulce1" viewBox="0 0 14.41 9.81"><path class="cls-1" d="M10,5.21s4.61-.83,3.78-2.37S12.27-.24,10,.88s-1.53,1-2.23,2S4.86,4.66,4,5.21,1.65,6.75,1.65,6.75,0,9.13.67,9.27s2.24-.14,2.66,0S10,5.21,10,5.21Z"/></symbol></defs><g id="humero"><path class="cls-3" d="M904.57,278l3,.19S967,273.91,995.74,285c0,0,3.86-9.08,8-9.19,0,0-.06-6.81,3.43-8.23s2.6,4.58,2.6,4.58-.8-7.11,2.72-8.9,5.69-.39,4.54,5.84c0,0,1.76-11.74,6.37-10.94s1.11,10.16,1.11,10.16,2.27-11.71,9.35-10.24,2.07,13,2.07,13l-.17,4.66-1.58,24.58-132.66-8.5Z"/><path class="cls-3" d="M685.11,251.89s7.19,2.22,9.77,4.3c0,0,18.3-21.95,52.61-24.85,0,0,14.62-19.31,36.44-26.36s55.2-3.16,88,12.65-8.41,108.83-8.41,108.83l4.21,31.74S812.47,372,769,350.37c0,0-48.1-3.83-77.2-26.74,0,0-30.15,32.64-31.6,82.65,0,0,7.64,2,4.54,23.09,0,0,11.14,9.9,6.41,14.6s-13.24-13.62-13.24-13.62l-39.45,4.4s-10.06-21.52-3.6-79.22c0,0,4-31.31,29.57-70.51S685.11,251.89,685.11,251.89Z"/><path class="cls-4" d="M665.21,456.93s6.35-8.59-.39-18.88S650,425.88,634.46,427.23,610.41,441,611.12,452.85s5.49,16.37,18.21,23.6,23-3,23-3-6.4-5.53-.24-13.57C656.66,453.94,665.21,456.93,665.21,456.93Z"/><path d="M639.1,443.3s-9.09,3.29-9,8.94,3.53,8.46,7.83,8.61,9.88-2.15,9.48-7.5S645.4,444.94,639.1,443.3Z"/><path d="M665.13,456.91s-8.48-8.18-19.42,2.95c-5.19,5.28-4.11,12.32-1.54,18.27a22,22,0,0,0,8.06-4.67s-6.4-5.53-.24-13.57C656.57,453.92,665.13,456.91,665.13,456.91Z"/><path class="cls-5" d="M615.36,446.83s-2,3-.28,4.45S615.36,446.83,615.36,446.83Z"/><path class="cls-5" d="M622.42,459.14s-4.23-4.28-3.89-1.75S622.42,459.14,622.42,459.14Z"/><path class="cls-5" d="M634.88,468s-1,2.61,1.16,2.75S634.88,468,634.88,468Z"/><path class="cls-5" d="M623.6,440.68s-1.54,3.24-.28,4.49S625.08,441.1,623.6,440.68Z"/><path class="cls-5" d="M647.31,438.19s-1.74,3.73-.3,4.65S647.31,438.19,647.31,438.19Z"/><path class="cls-5" d="M658.83,446.11s-7.3,1.87-5.16,2.34S658.83,446.11,658.83,446.11Z"/><path class="cls-5" d="M625.48,453.15s-2,1.72-.16,2.5S627.56,454.46,625.48,453.15Z"/><path class="cls-5" d="M634.3,474.6s-8.14-3.53-5.37-3.69S634.3,474.6,634.3,474.6Z"/><use width="14.35" height="12.83" transform="matrix(0.55, 0.04, -0.04, 0.55, 649.71, 450.71)" xlink:href="#dulce4"/><use width="14.35" height="12.83" transform="matrix(0.55, 0.04, -0.04, 0.55, 654.53, 444.12)" xlink:href="#dulce4"/><use width="14.35" height="12.83" transform="matrix(0.55, 0.04, -0.04, 0.55, 645.35, 440.58)" xlink:href="#dulce4"/><use width="14.35" height="12.83" transform="matrix(0.55, 0.04, -0.04, 0.55, 648.46, 432.37)" xlink:href="#dulce4"/><use width="14.35" height="12.83" transform="matrix(0.55, 0.04, -0.04, 0.55, 641.92, 427.03)" xlink:href="#dulce4"/><use width="14.35" height="12.83" transform="matrix(0.55, 0.04, -0.04, 0.55, 635.67, 433)" xlink:href="#dulce4"/><use width="14.35" height="12.83" transform="matrix(0.55, 0.04, -0.04, 0.55, 627.79, 429.47)" xlink:href="#dulce4"/><use width="14.35" height="12.83" transform="matrix(0.55, 0.04, -0.04, 0.55, 625.7, 438.97)" xlink:href="#dulce4"/><use width="14.35" height="12.83" transform="matrix(0.55, 0.04, -0.04, 0.55, 617, 436.57)" xlink:href="#dulce4"/><use width="14.35" height="12.83" transform="matrix(0.55, 0.04, -0.04, 0.55, 616.11, 447.31)" xlink:href="#dulce4"/><use width="14.35" height="12.83" transform="matrix(0.55, 0.04, -0.04, 0.55, 620.02, 455.74)" xlink:href="#dulce4"/><use width="14.35" height="12.83" transform="matrix(0.55, 0.04, -0.04, 0.55, 629.23, 463.83)" xlink:href="#dulce4"/><use width="14.35" height="12.83" transform="matrix(0.55, 0.04, -0.04, 0.55, 637.45, 462.53)" xlink:href="#dulce4"/><path class="cls-6" d="M703.46,251.87S719.53,239,738,240"/><path class="cls-3" d="M639,404s7.88,1.85,4.82,18.2c0,0-1.89,3.28,1.51,9.54s-8.77,11.39-12.53,4.89-11.71-13.46-11.91-13.47"/><path class="cls-3" d="M894.45,289.12s47.09-10.75,117.23,4.5c0,0,18-18.65,22.18-19.33a6.67,6.67,0,0,1,5.39-1.73s.12-10.74,11.38-9.83a4.14,4.14,0,0,1,3.51,4.18,8.37,8.37,0,0,0-5.76,7.37s1.09-8,8.24-7.77c0,0,5.35,1.85,2,6.92l-5.51,3.63s7-5.73,11.43-2.52-2.87,8.25-2.87,8.25l-1.24,1.09s3.35-4.05,6.68-3.83,5.24.33,4.61,6.3a5.36,5.36,0,0,1-6.1,5.21s2.18,20.78-21.2,37.6c0,0-3.7,34.37-32.25,18.51,0,0-78.9-.05-125,2.51,0,0-14.91-19.49-12-34.09S894.45,289.12,894.45,289.12Z"/><path class="cls-1" d="M844.59,360.75s22.33.39,35.29-6.1c0,0-26.07-45.83,26.07-68.36,0,0,6.24-36.19-35.29-69.16C870.66,217.13,830.81,264,844.59,360.75Z"/><path class="cls-1" d="M878.27,224.67l.49-1.3c-2.23-2.07-4.62-4.13-7.21-6.19,0,0-39.85,46.84-26.07,143.63a124.31,124.31,0,0,0,16.43-1C840.62,288.63,878.27,224.67,878.27,224.67Z"/><path class="cls-6" d="M873.88,220s-.76,1.2-2,3.44"/><path class="cls-7" d="M868.12,230.57c-10.23,20.68-29.21,69-14.94,121.12"/><path class="cls-6" d="M854.29,355.55q.59,1.9,1.23,3.81"/><path class="cls-1" d="M890.92,353.09l-12,2.5s-10.6-21.45-6.83-42.95c3.9-22.23,26.39-29.88,26.39-29.88l10.63,3.52S858.34,304.74,890.92,353.09Z"/><path class="cls-1" d="M907,274.67a37.7,37.7,0,0,1-8.39-11c-.66-3.45-1.84-11.71-.86-16.88a95.46,95.46,0,0,0-16.91-21.63l-3.09,1.64c1.23,2.31,3.65,4.6,6.21,7,3.36,3.17,8,7.51,7.24,10.2-2.12,7.94.54,21,.65,21.53l.1.47.22.43c4.9,9.54,10.78,14.49,15.14,17A55.35,55.35,0,0,0,907,274.67Z"/><path class="cls-3" d="M694.88,255.72l-9.75-4.46-40.47-67.43-3.9-1.75a7.79,7.79,0,0,0-1.34-10.28s-7.33-2.22-11.18-.46l.65-.8s.28-6.91-13.74-4.38c0,0,.06-3.67-4.68-4s-6.27,1.52-6.27,1.52-5.72-4-18-4.79c0,0-44.08-2.55-53.22,37.25s89.71,83.51,89.71,83.51l20.36,8.17"/><path class="cls-8" d="M670.67,183.55s-18-5.36-31.4,4c0,0-26.43,32.2-12.86,57.8,0,0,24.22,30.68,49.81,17.3,0,0,21.12-23.23,8.25-28.6a10.65,10.65,0,0,1-12.66-5c-4.76-7.92,11.56-35,10.79-37.22S678.55,177.83,670.67,183.55Z"/><path class="cls-9" d="M666.25,208.28s-17.12,14.26-16.37,30.95,15.64,21.77,25,12c0,0,5-4.83,5.44-10C680.35,241.18,663.37,245.48,666.25,208.28Z"/><path class="cls-10" d="M650.62,244.32s9.92-2.32,14,1.74a21.57,21.57,0,0,1,5.4,8.7s-5.33,3.69-13.67-.88C656.4,253.88,651.32,248.69,650.62,244.32Z"/><path class="cls-6" d="M584.06,179.45s5.25,6.68,1.68,18.14"/><path class="cls-6" d="M586.26,201.9s-.42,14.76,19.33,11.62"/><path class="cls-6" d="M612.56,183.07s-18.75,6.9-18.42,30.54"/><path class="cls-6" d="M600.84,180.52s13.82-1.37,20.16,10.92a48.43,48.43,0,0,1,6.87-19.8"/><path class="cls-6" d="M626.88,172.9c-2,.78-6.41,3.14-12.65,10.27"/><path class="cls-11" d="M623.61,324.81s8.52-24.18,20.75-39.59c0,0-14.62-34.4-48-34.65,0,0-13.41-13.8-27.29-14.69,0,0-10.09-13.52-27.22-11.55a32.84,32.84,0,0,0-5-7.44s-23.51,6.29-36.53,20.57-17.14,26.37-17.14,26.37-15.23,7-14.56,18.7c0,0,9.3,3.48,25-4.26,0,0,17.62,31.29,59.58,34.56S593,310.28,596.16,310s14.89-.39,21.21,5.11A13.26,13.26,0,0,0,623.61,324.81Z"/><path class="cls-12" d="M595.54,300.09S545,291,511,269.46c0,0-5.31-5.69-16.32-3.39,0,0,11.15-2.5,17.29,5.2s13.77,15.16,18.23,17.87,15.73,8.57,27.56,10.29S589.66,302.64,595.54,300.09Z"/><path class="cls-6" d="M527.35,227.24s3.1-4.58,14.74-2.94"/><path class="cls-6" d="M531.69,236.34s.74-5.41,37.37-.46"/><path class="cls-6" d="M536,241.37s3.16-10.47,32.41-5.57"/><path class="cls-6" d="M579.4,261.94s15.48-22.56,39.64-.84"/><path class="cls-6" d="M618.1,307.07a24.57,24.57,0,0,0-.53,8.25"/><line class="cls-6" x1="536.24" y1="282.38" x2="532.18" y2="290.56"/><line class="cls-6" x1="549.47" y1="287.44" x2="548.83" y2="297.4"/><line class="cls-6" x1="564.59" y1="292.43" x2="563.79" y2="300.2"/><path class="cls-6" d="M539.87,216s-13.72-4.38-5.28-19.61"/><path class="cls-6" d="M540,197.57s-5.3,1.68-6.62-3"/><polyline class="cls-6" points="589.17 243.95 575.87 231.29 598.23 233.76"/><path class="cls-6" d="M600.07,239.21s-6.65,1.54-6.81,8.51"/><path class="cls-6" d="M606.6,244.1s-4.26-2-6.35,1.39,1.14,3.71,1.14,3.71"/><path class="cls-6" d="M604.83,250.29s3.39,1.85,4.67-2.58,6.18-2.61,5.61.36-1.87,3.89-3.84,5.08"/><path class="cls-6" d="M673.79,194s4.25,1.29-.4,6.22-10.06,11.73-10.06,11.73"/><path class="cls-6" d="M608.55,167.21a27.69,27.69,0,0,1,14.09-1c7.68,1.52,5.58,5.46,5.58,5.46"/><path class="cls-6" d="M676.41,248.6s2.82-2.12,4.82-11.43c0,0-.15-3.7,5.4-2.71"/><path class="cls-13" d="M854.53,187s21.33,4.36,24.81,14-.53,17.58-2.47,18-29.44.63-32.11-2.06-15.94-5.29-17.7-14.22.4-18.74.4-18.74S844.26,177.85,854.53,187Z"/><path class="cls-14" d="M855.41,182.28s24.86,8.74,24.2,21.55c0,0-.89,4-16.11.16s-31.35-8.44-35.62-18.23S853.48,181.54,855.41,182.28Z"/><ellipse cx="869.16" cy="194.55" rx="0.88" ry="1.5" transform="translate(619.43 1049.48) rotate(-86.33)"/><ellipse cx="861.9" cy="195.84" rx="0.88" ry="1.5" transform="translate(611.33 1043.45) rotate(-86.33)"/><ellipse cx="873.7" cy="199.24" rx="0.88" ry="1.5" transform="translate(618.99 1058.42) rotate(-86.33)"/><ellipse cx="855.38" cy="197.19" rx="0.88" ry="1.5" transform="translate(603.89 1038.21) rotate(-86.33)"/><ellipse cx="848.92" cy="195.01" rx="0.88" ry="1.5" transform="translate(600.02 1029.72) rotate(-86.33)"/><ellipse cx="842.21" cy="189.04" rx="0.88" ry="1.5" transform="translate(599.69 1017.43) rotate(-86.33)"/><ellipse cx="836.38" cy="183.63" rx="0.88" ry="1.5" transform="translate(599.63 1006.55) rotate(-86.33)"/><path d="M854.47,192.2s7.21,1.49,8.55-3.46-9.25-6.87-9.25-6.87-12.21-2.23-8.7,2.63a21.7,21.7,0,0,0,2.59,4.38C848.69,189.88,854.47,192.2,854.47,192.2Z"/><ellipse cx="864.99" cy="211.6" rx="2.7" ry="1.63" transform="translate(252.12 857.64) rotate(-60.26)"/><ellipse cx="853.35" cy="205.48" rx="1.92" ry="2.29" transform="translate(45.86 549.54) rotate(-36.62)"/><ellipse cx="874.95" cy="209.01" rx="1.37" ry="1.11" transform="translate(130.44 713.91) rotate(-47.58)"/><path class="cls-15" d="M812.92,189s-21.64.6-26.13,6.56-1.33,11.59.56,12,29.16,3.54,32.1,2.06,16.4-1.78,19.1-7.45,1.58-12.34,1.58-12.34S824.09,184.07,812.92,189Z"/><path class="cls-4" d="M812.55,185.79s-25.62,3.1-26.32,11.58c0,0,.46,2.71,16,1.81s32-2.21,37.3-8.18S814.54,185.51,812.55,185.79Z"/><ellipse cx="797.59" cy="192.38" rx="0.58" ry="1.5" transform="translate(554.59 976.04) rotate(-86.33)"/><ellipse cx="804.67" cy="194" rx="0.58" ry="1.5" transform="translate(559.6 984.62) rotate(-86.33)"/><ellipse cx="792.58" cy="194.98" rx="0.58" ry="1.5" transform="translate(547.31 973.47) rotate(-86.33)"/><ellipse cx="811" cy="195.58" rx="0.58" ry="1.5" transform="translate(563.95 992.41) rotate(-86.33)"/><ellipse cx="817.64" cy="194.84" rx="0.58" ry="1.5" transform="translate(570.91 998.34) rotate(-86.33)"/><ellipse cx="824.95" cy="191.63" rx="0.58" ry="1.5" transform="translate(580.95 1002.63) rotate(-86.33)"/><ellipse cx="831.31" cy="188.7" rx="0.58" ry="1.5" transform="translate(589.83 1006.24) rotate(-86.33)"/><path d="M812.43,192.4s-7.32.22-8.12-3.18,9.91-3.52,9.91-3.52,12.36-.17,8.36,2.65a15.85,15.85,0,0,1-3,2.6C818.42,191.49,812.43,192.4,812.43,192.4Z"/><ellipse cx="799.93" cy="204.02" rx="1.38" ry="2.11" transform="translate(127.8 683.34) rotate(-49.8)"/><ellipse cx="812.14" cy="201.23" rx="2.11" ry="1.38" transform="translate(-20.56 119.54) rotate(-8.31)"/><ellipse cx="790.3" cy="201.26" rx="0.81" ry="1.24" transform="translate(355.42 891.16) rotate(-72.06)"/><path class="cls-15" d="M818.07,173.78s-21.64.6-26.13,6.56-1.33,11.59.56,12,29.16,3.54,32.1,2.05,16.4-1.77,19.1-7.45,1.58-12.34,1.58-12.34S829.24,168.87,818.07,173.78Z"/><path class="cls-4" d="M817.7,170.59s-25.62,3.1-26.32,11.58c0,0,.46,2.71,16,1.81s32-2.21,37.3-8.18S819.69,170.31,817.7,170.59Z"/><ellipse cx="802.74" cy="177.18" rx="0.58" ry="1.5" transform="translate(574.58 966.95) rotate(-86.33)"/><ellipse cx="809.82" cy="178.81" rx="0.58" ry="1.5" transform="translate(579.58 975.53) rotate(-86.33)"/><ellipse cx="797.73" cy="179.79" rx="0.58" ry="1.5" transform="translate(567.29 964.38) rotate(-86.33)"/><ellipse cx="816.15" cy="180.38" rx="0.58" ry="1.5" transform="translate(583.94 983.32) rotate(-86.33)"/><ellipse cx="822.79" cy="179.64" rx="0.58" ry="1.5" transform="translate(590.9 989.26) rotate(-86.33)"/><ellipse cx="830.09" cy="176.43" rx="0.58" ry="1.5" transform="translate(600.93 993.54) rotate(-86.33)"/><ellipse cx="836.46" cy="173.5" rx="0.58" ry="1.5" transform="translate(609.82 997.15) rotate(-86.33)"/><path d="M817.58,177.2s-7.32.22-8.12-3.18,9.91-3.52,9.91-3.52,12.36-.17,8.36,2.65a15.85,15.85,0,0,1-3,2.6C823.57,176.29,817.58,177.2,817.58,177.2Z"/><ellipse cx="805.08" cy="188.82" rx="1.38" ry="2.11" transform="translate(141.23 681.88) rotate(-49.8)"/><ellipse cx="817.29" cy="186.04" rx="2.11" ry="1.38" transform="translate(-18.31 120.12) rotate(-8.31)"/><ellipse cx="795.45" cy="186.06" rx="0.81" ry="1.24" transform="translate(373.44 885.54) rotate(-72.06)"/><path class="cls-16" d="M533.83,199.77c-3.81,9.95,6.63,24.14,6.63,24.14L529,225.85c33.29-.87,21.79,9.25,21.79,9.25l12.82,3.16c23.8,6.53,16.71,23.45,16.71,23.45l5.82-4.81c22.58-13.58,53.26,36.65,53.26,36.65,2.29-4.53,7.93-11.08,7.93-11.08-5.42-16.21-32.53-36-32.53-36A6.13,6.13,0,0,1,612.4,253s-18.47-1.06-18.93-5.75a6.67,6.67,0,0,1,3.45-6.6c-56.79-15.5-63.09-45.17-63.09-45.17Z"/><path class="cls-16" d="M483,263.23s.81,11.88,25,12.21c0,0,8.06,23.47,42.54,30.9s62.69-6.42,62.69-6.42l4.33,8.46,12.68.29s-6.72,12.44-6.83,16.95c0,0-6.35-4.06-6.1-10.65,0,0-11.06-9.23-30.65-2.14-34.9,5.09-82.31-7.71-92.59-34.46,0,0-31.44,12.77-24.21-2.25C469.78,276.12,475,265,483,263.23Z"/><path class="cls-16" d="M631,251s6.62,18.1,25.83,21,22.69-13.7,22.69-13.7-4.07,11.56-24.15,6.54C635.63,257,631,251,631,251Z"/><path class="cls-17" d="M668.33,282s1.07,1.64-2.47,12,2.27,15.58,2.16,19.37-.92,6.08-2.17,7.31-8-1-6.11-8.76,2.3-13.45,0-20.66.82-23,.63-24.16-2.85-9,1.62-11.17a12,12,0,0,0,7.15-.69s5.53,3.46,1.87,11.41S668.42,274.07,668.33,282Z"/><path class="cls-16" d="M1043.41,329.15l-7.88,4.8c-8.49,14.22-25.77,6.29-25.77,6.29l-14.36-.54-55.57-1.29c-32.21,6.27-56.05.2-56.05.2a29.94,29.94,0,0,1-9.17,1.3c-1.77,4-15.52,5.82-15.52,5.82l-14.49,1.72c-29.83,4.53-55.54-13.78-55.54-13.78-20.46,6.26-56.7-1.36-74.22-11.57s-16.23-6.72-16.23-6.72c-19.24,4.83-27.5,39.13-27.5,39.13l.48,1.94c9.07-20.72,20.22-32.82,20.22-32.82,29.1,22.91,77.2,26.74,77.2,26.74,31.14,15.46,68.32,12.79,86.9,10,1.87-.15,3.9-.35,6-.63a1.09,1.09,0,0,0,0-.17,64.11,64.11,0,0,0,16.83-4.38l.18.37,12-2.5c-.69-1-1.32-2-1.94-3,46.36-2.45,123.2-2.41,123.2-2.41,26.32,14.62,31.52-13.46,32.17-17.92Z"/><path class="cls-16" d="M641.77,468.89c-15.87.62-24-10.61-24.74-23s12.14-12.95,12.14-12.95-.08,8.6,9.79,7.14,6.08-7.76,6.08-7.76-12.62,11.77-22.73-19.38c-9.32-28.69-4.06-68.88-3.18-75a115.72,115.72,0,0,0-4.26,17.63c-6,53.37,2.18,75.78,3.44,78.84a24,24,0,0,0-7.19,18.48c.72,11.88,5.49,16.37,18.21,23.6a18.42,18.42,0,0,0,11.22,2.48l2.51-1.81Z"/><use width="14.41" height="9.81" transform="translate(626.29 449.31) rotate(13.01) scale(0.59)" xlink:href="#dulce1"/><use width="14.41" height="9.81" transform="matrix(0.59, -0.06, 0.06, 0.59, 629.28, 437.38)" xlink:href="#dulce1"/><use width="14.41" height="9.81" transform="matrix(0.57, -0.13, 0.13, 0.57, 619.86, 441.26)" xlink:href="#dulce1"/><use width="14.41" height="9.81" transform="matrix(0.59, 0.04, -0.04, 0.59, 623.18, 430.26)" xlink:href="#dulce1"/><use width="14.41" height="9.81" transform="matrix(0.57, 0.14, -0.14, 0.57, 618.94, 448.55)" xlink:href="#dulce1"/><use width="14.41" height="9.81" transform="matrix(0.48, 0.34, -0.34, 0.48, 620.24, 452.41)" xlink:href="#dulce1"/><use width="14.41" height="9.81" transform="translate(612.01 445.35) rotate(5.59) scale(0.59 0.59)" xlink:href="#dulce1"/><use width="14.41" height="9.81" transform="matrix(-0.02, 0.59, -0.59, -0.02, 631.96, 463.42)" xlink:href="#dulce1"/><use width="14.41" height="9.81" transform="matrix(0.58, 0.09, -0.09, 0.58, 637.11, 467.35)" xlink:href="#dulce1"/><use width="14.41" height="9.81" transform="matrix(0.59, 0.06, -0.06, 0.59, 636.48, 459.26)" xlink:href="#dulce1"/><use width="14.41" height="9.81" transform="matrix(0.58, 0.1, -0.1, 0.58, 647.02, 458.22)" xlink:href="#dulce1"/><use width="14.41" height="9.81" transform="matrix(0.59, 0.04, -0.04, 0.59, 652.22, 452.75)" xlink:href="#dulce1"/><use width="14.41" height="9.81" transform="matrix(0.59, 0.07, -0.07, 0.59, 654.15, 442.63)" xlink:href="#dulce1"/><use width="14.41" height="9.81" transform="matrix(0.58, -0.12, 0.12, 0.58, 645.45, 434.49)" xlink:href="#dulce1"/><use width="14.41" height="9.81" transform="matrix(0.58, -0.12, 0.12, 0.58, 639.69, 439.7)" xlink:href="#dulce1"/></g></svg>