<svg xmlns="http://www.w3.org/2000/svg" xmlns:xlink="http://www.w3.org/1999/xlink" viewBox="0 0 1280 720"><defs><style>.cls-1{fill:none;}.cls-2{isolation:isolate;}.cls-3{fill:#80660a;}.cls-4{clip-path:url(#clip-path);}.cls-5{fill:#856a0a;}.cls-6{clip-path:url(#clip-path-2);}.cls-7{fill:#9e7e0c;}.cls-8{clip-path:url(#clip-path-3);}.cls-9{fill:#997a0b;}.cls-10{fill:#94760b;}.cls-11{clip-path:url(#clip-path-4);}.cls-12{fill:#9c7d0c;}.cls-13{fill:#ddb110;}</style><clipPath id="clip-path"><path class="cls-1" d="M357,439.8l0-6.12c.2-1.09.41-2.15.61-3.18s.39-2,.59-3,.38-1.88.56-2.77.37-1.74.54-2.56.35-1.59.52-2.31.33-1.39.48-2,.3-1.18.45-1.7.28-1,.41-1.39l1.33,0c-.18.55-.36,1.16-.55,1.84s-.39,1.44-.59,2.25-.42,1.7-.64,2.65-.44,2-.68,3.05-.47,2.22-.71,3.39-.5,2.4-.75,3.66-.52,2.57-.78,3.93Z"/></clipPath><clipPath id="clip-path-2"><path class="cls-1" d="M351.11,414.48l1.44,0c.06.23.14.52.22.88s.2.8.31,1.31.26,1.08.4,1.73.32,1.37.5,2.16.37,1.66.58,2.6.45,1.95.7,3,.52,2.26.81,3.5.59,2.55.92,3.94l0,6.12q-.64-2.76-1.21-5.21c-.38-1.64-.74-3.18-1.07-4.62s-.64-2.78-.92-4l-.78-3.43c-.23-1.05-.45-2-.64-2.85s-.38-1.62-.53-2.29-.3-1.24-.41-1.72S351.19,414.78,351.11,414.48Z"/></clipPath><clipPath id="clip-path-3"><path class="cls-1" d="M309.15,385.77l11.65,7c.05,1.4.09,2.76.13,4.06s.07,2.56.11,3.76.06,2.36.09,3.47.05,2.16.07,3.16,0,2,.06,2.87,0,1.76,0,2.57,0,1.56,0,2.26,0,1.36,0,2l-11.47.73c0-.8,0-1.67,0-2.6s0-1.93,0-3,0-2.19-.05-3.39-.05-2.46-.07-3.79-.07-2.72-.1-4.18-.08-3-.13-4.58-.09-3.25-.14-5S309.21,387.63,309.15,385.77Z"/></clipPath><clipPath id="clip-path-4"><path class="cls-1" d="M404.68,416l-11.59-.33v-2.91c0-1,0-1.92,0-2.87s0-1.89,0-2.83,0-1.86,0-2.79,0-1.85,0-2.79,0-1.89,0-2.85,0-1.92,0-2.9,0-1.95,0-2.94l11.64-7c0,1.31,0,2.61-.05,3.89s0,2.56-.05,3.83,0,2.52,0,3.76,0,2.48,0,3.69,0,2.46,0,3.7,0,2.48,0,3.74,0,2.52,0,3.79Z"/></clipPath></defs><g id="letram"><g class="cls-2"><polygon class="cls-3" points="404.21 500.98 392.73 479.98 393.09 415.68 404.68 416.01 404.21 500.98"/><g class="cls-2"><g class="cls-4"><g class="cls-2"><path class="cls-5" d="M357,439.8l0-6.12c.2-1.09.41-2.15.61-3.18s.39-2,.59-3,.38-1.88.56-2.77.37-1.74.54-2.56.35-1.59.52-2.31.33-1.39.48-2,.3-1.18.45-1.7.28-1,.41-1.39l1.33,0c-.18.55-.36,1.16-.55,1.84s-.39,1.44-.59,2.25-.42,1.7-.64,2.65-.44,2-.68,3.05-.47,2.22-.71,3.39-.5,2.4-.75,3.66-.52,2.57-.78,3.93l-.81,4.2"/></g></g></g><g class="cls-2"><g class="cls-6"><g class="cls-2"><path class="cls-7" d="M351.11,414.48l1.44,0c.06.23.14.52.22.88s.2.8.31,1.31.26,1.08.4,1.73.32,1.37.5,2.16.37,1.66.58,2.6.45,1.95.7,3,.52,2.26.81,3.5.59,2.55.92,3.94l0,6.12q-.64-2.76-1.21-5.21c-.38-1.64-.74-3.18-1.07-4.62s-.64-2.78-.92-4l-.78-3.43c-.23-1.05-.45-2-.64-2.85s-.38-1.62-.53-2.29-.3-1.24-.41-1.72-.22-.87-.3-1.17"/></g></g></g><g class="cls-2"><g class="cls-8"><g class="cls-2"><path class="cls-9" d="M309.15,385.77l11.65,7c.05,1.4.09,2.76.13,4.06s.07,2.56.11,3.76.06,2.36.09,3.47.05,2.16.07,3.16v1.14l-11.51-2v-1.51c0-1.33-.07-2.72-.1-4.18s-.08-3-.13-4.58-.09-3.25-.14-5-.11-3.51-.17-5.37"/><path class="cls-10" d="M309.72,406.38l11.51,2c0,.88,0,1.71,0,2.5s0,1.55,0,2.26,0,1.38,0,2v1.76l-11.47.73c0-.72,0-1.5,0-2.33s0-1.72,0-2.66,0-1.93,0-3,0-2.14-.06-3.3"/></g></g></g><g class="cls-2"><g class="cls-11"><g class="cls-2"><path class="cls-5" d="M404.68,416l-11.59-.33v-2.91c0-1,0-1.92,0-2.87s0-1.89,0-2.83,0-1.86,0-2.79,0-1.85,0-2.79,0-1.89,0-2.85,0-1.92,0-2.9,0-1.95,0-2.94l11.64-7c0,1.31,0,2.61-.05,3.89s0,2.56-.05,3.83,0,2.52,0,3.76,0,2.48,0,3.69,0,2.46,0,3.7,0,2.48,0,3.74,0,2.52,0,3.79V416"/></g></g></g><polygon class="cls-12" points="327.2 328.33 334.46 349.33 352.55 414.52 351.11 414.48 327.2 328.33"/><polygon class="cls-3" points="362.48 414.83 361.15 414.79 379.69 349.33 386.98 328.33 362.48 414.83"/><path class="cls-13" d="M454.37,328.33V501H404.21l.47-85v-3.84c0-1.27,0-2.54,0-3.79s0-2.51,0-3.74,0-2.47,0-3.7,0-2.45,0-3.69,0-2.5,0-3.76,0-2.54.05-3.83,0-2.58.05-3.89c-.47,2.23-1,4.5-1.48,6.83s-1.06,4.71-1.63,7.14-1.16,4.92-1.77,7.45-1.26,5.12-1.92,7.76l-.35,1.53L376.43,501H337.76l-21.58-82.63c-.25-.94-.5-1.91-.76-2.92s-.5-2-.76-3.11-.5-2.19-.76-3.33-.5-2.32-.76-3.53-.53-2.53-.82-4-.61-3-.94-4.6l-1.05-5.24q-.57-2.79-1.18-5.89c.06,1.86.12,3.65.17,5.37s.1,3.38.14,5,.09,3.12.13,4.58.07,2.85.1,4.18.05,2.59.07,3.79,0,2.33.05,3.39,0,2.07,0,3,0,1.8,0,2.6V501H259.69V328.33H327.2l23.91,86.15c.08.3.18.68.3,1.17s.25,1.05.41,1.72.33,1.43.53,2.29.41,1.8.64,2.85l.78,3.43c.28,1.25.59,2.59.92,4s.69,3,1.07,4.62.78,3.37,1.21,5.21l.81-4.2c.26-1.36.52-2.66.78-3.93s.5-2.48.75-3.66.48-2.3.71-3.39.46-2.1.68-3.05.43-1.83.64-2.65.4-1.56.59-2.25.37-1.29.55-1.84l24.5-86.5Z"/></g></g></svg>